<?xml version="1.0" encoding="UTF-8"?>
<svg xmlns="http://www.w3.org/2000/svg" xmlns:xlink="http://www.w3.org/1999/xlink" width="141pt" height="199pt" viewBox="0 0 141 199" version="1.1">
<defs>
<radialGradient id="radial0" gradientUnits="userSpaceOnUse" cx="23.857143" cy="40" fx="23.857143" fy="40" r="17.142857" gradientTransform="matrix(4.242337,0,0,2.302053,-32.906381,49.013068)">
<stop offset="0" style="stop-color:rgb(0%,0%,0%);stop-opacity:1;"/>
<stop offset="1" style="stop-color:rgb(0%,0%,0%);stop-opacity:0;"/>
</radialGradient>
<linearGradient id="linear0" gradientUnits="userSpaceOnUse" x1="9.303053" y1="26.71875" x2="38.826412" y2="26.71875" gradientTransform="matrix(21.142907,0,0,21.141464,-150.03918,-46.655168)">
<stop offset="0" style="stop-color:rgb(44.705882%,62.352941%,81.176471%);stop-opacity:1;"/>
<stop offset="0.315789" style="stop-color:rgb(72.941176%,74.117647%,71.372549%);stop-opacity:1;"/>
<stop offset="1" style="stop-color:rgb(20.392157%,39.607843%,64.313725%);stop-opacity:1;"/>
</linearGradient>
<linearGradient id="linear1" gradientUnits="userSpaceOnUse" x1="49.136964" y1="467.2588" x2="747.09593" y2="467.2588" gradientTransform="matrix(0.901337,0,0,1.109386,-0.0777659,-0.152184)">
<stop offset="0" style="stop-color:rgb(20.392157%,39.607843%,64.313725%);stop-opacity:1;"/>
<stop offset="1" style="stop-color:rgb(12.54902%,29.019608%,52.941176%);stop-opacity:1;"/>
</linearGradient>
<filter id="alpha" filterUnits="objectBoundingBox" x="0%" y="0%" width="100%" height="100%">
  <feColorMatrix type="matrix" in="SourceGraphic" values="0 0 0 0 1 0 0 0 0 1 0 0 0 0 1 0 0 0 1 0"/>
</filter>
<mask id="mask0">
  <g filter="url(#alpha)">
<rect x="0" y="0" width="141" height="199" style="fill:rgb(0%,0%,0%);fill-opacity:0.545098;stroke:none;"/>
  </g>
</mask>
<linearGradient id="linear2" gradientUnits="userSpaceOnUse" x1="17.160095" y1="14.004482" x2="37.969398" y2="56.575912" gradientTransform="matrix(21.142907,0,0,21.141464,-150.03918,-46.655168)">
<stop offset="0" style="stop-color:rgb(20.392157%,39.607843%,64.313725%);stop-opacity:1;"/>
<stop offset="1" style="stop-color:rgb(44.705882%,62.352941%,81.176471%);stop-opacity:0;"/>
</linearGradient>
<clipPath id="clip1">
  <rect width="141" height="199"/>
</clipPath>
<g id="surface6" clip-path="url(#clip1)">
<path style="fill:none;stroke-width:21.142183;stroke-linecap:butt;stroke-linejoin:miter;stroke:url(#linear2);stroke-miterlimit:10;" d="M 356.25266 158.118012 C 201.314495 158.118012 75.335771 213.357098 75.335771 281.316661 C 75.335771 286.190091 75.335771 744.003376 75.335771 749.083307 C 75.335771 817.042871 201.314495 872.281957 356.25266 872.281957 C 511.190824 872.281957 642.178191 817.042871 642.178191 749.083307 C 642.178191 745.077183 642.178191 285.322786 642.178191 281.316661 C 642.178191 213.357098 511.190824 158.118012 356.25266 158.118012 Z M 356.25266 158.118012 " transform="matrix(0.189516,0,0,0.189163,0,0)"/>
</g>
<linearGradient id="linear3" gradientUnits="userSpaceOnUse" x1="24" y1="16.525082" x2="24" y2="13.284962" gradientTransform="matrix(1,0,0,1,0,0.000000000000000111)">
<stop offset="0" style="stop-color:rgb(100%,100%,100%);stop-opacity:1;"/>
<stop offset="1" style="stop-color:rgb(44.705882%,62.352941%,81.176471%);stop-opacity:1;"/>
</linearGradient>
<mask id="mask1">
  <g filter="url(#alpha)">
<rect x="0" y="0" width="141" height="199" style="fill:rgb(0%,0%,0%);fill-opacity:0.494118;stroke:none;"/>
  </g>
</mask>
<linearGradient id="linear4" gradientUnits="userSpaceOnUse" x1="16.07143" y1="19.5" x2="15.785715" y2="30" gradientTransform="matrix(4.006922,0,0,3.999193,-29.007278,1.74386)">
<stop offset="0" style="stop-color:rgb(100%,100%,100%);stop-opacity:1;"/>
<stop offset="1" style="stop-color:rgb(100%,100%,100%);stop-opacity:0;"/>
</linearGradient>
<clipPath id="clip2">
  <rect width="141" height="199"/>
</clipPath>
<g id="surface9" clip-path="url(#clip2)">
<path style=" stroke:none;fill-rule:nonzero;fill:url(#linear4);" d="M 26.230469 70.015625 L 27.660156 137.144531 L 45.980469 142.285156 L 45.40625 75.441406 C 45.40625 75.441406 53.707031 75.441406 67.160156 74.585938 C 46.257812 73.652344 22.347656 64.691406 14.210938 58.875 C 19.886719 67.242188 26.230469 70.015625 26.230469 70.015625 Z M 26.230469 70.015625 "/>
</g>
</defs>
<g id="surface1">
<path style=" stroke:none;fill-rule:nonzero;fill:url(#radial0);" d="M 141.03125 141.09375 C 141.039062 162.894531 108.476562 180.566406 68.304688 180.566406 C 28.132812 180.566406 -4.429688 162.894531 -4.421875 141.09375 C -4.429688 119.296875 28.132812 101.621094 68.304688 101.621094 C 108.476562 101.621094 141.039062 119.296875 141.03125 141.09375 Z M 141.03125 141.09375 "/>
<path style="fill-rule:nonzero;fill:url(#linear0);stroke-width:21.142183;stroke-linecap:butt;stroke-linejoin:miter;stroke:url(#linear1);stroke-miterlimit:10;" d="M 356.067154 141.639212 C 189.895612 141.639212 54.785904 200.884422 54.785904 273.779366 C 54.785904 279.003847 54.785904 757.219457 54.785904 762.67109 C 54.785904 835.545383 189.895612 894.790594 356.067154 894.790594 C 522.238697 894.790594 662.728059 835.545383 662.728059 762.67109 C 662.728059 758.355214 662.728059 278.074592 662.728059 273.779366 C 662.728059 200.884422 522.238697 141.639212 356.067154 141.639212 Z M 356.067154 141.639212 " transform="matrix(0.189516,0,0,0.189163,0,0)"/>
<use xlink:href="#surface6" mask="url(#mask0)"/>
<path style="fill-rule:nonzero;fill:rgb(20.392157%,39.607843%,64.313725%);fill-opacity:1;stroke-width:1.004927;stroke-linecap:butt;stroke-linejoin:miter;stroke:url(#linear3);stroke-miterlimit:10;" d="M 36.857593 14.071739 C 36.857593 17.108576 31.101144 19.571402 23.999801 19.571402 C 16.899398 19.571402 11.142949 17.108576 11.142949 14.071739 C 11.142949 11.033878 16.899398 8.571052 23.999801 8.571052 C 31.101144 8.571052 36.857593 11.033878 36.857593 14.071739 Z M 36.857593 14.071739 " transform="matrix(4.156344,0,0,3.817705,-32.02096,-2.272533)"/>
<use xlink:href="#surface9" mask="url(#mask1)"/>
<path style="fill-rule:nonzero;fill:rgb(0%,0%,0%);fill-opacity:1;stroke-width:37.394005;stroke-linecap:butt;stroke-linejoin:miter;stroke:rgb(0%,0%,0%);stroke-opacity:1;stroke-miterlimit:4;" d="M 455.147606 729.362437 C 457.992021 705.759344 457.12633 702.290122 474.708112 706.110396 L 479.180851 706.502748 C 492.702128 707.122252 510.366356 704.334485 520.754654 699.502356 C 543.118351 689.135992 556.392287 671.810537 534.337766 676.353565 C 484.045213 686.740578 480.582447 669.704224 480.582447 669.704224 C 533.698803 590.903345 555.897606 490.874136 536.728723 466.403737 C 484.457447 399.621231 393.972074 431.195273 392.46742 432.021278 L 391.993351 432.103879 C 382.037899 430.038866 370.928191 428.820509 358.4375 428.614008 C 335.661569 428.242305 318.409574 434.581894 305.300532 444.514604 C 305.300532 444.514604 143.890293 378.0212 151.392952 528.126963 C 153.000665 560.072707 197.171543 769.774733 249.875665 706.440798 C 269.126995 683.271357 287.739362 663.695038 287.739362 663.695038 C 296.973404 669.828125 308.041888 672.966944 319.646277 671.831187 L 320.553191 671.067133 C 320.264628 673.9375 320.388298 676.766567 320.90359 680.091237 C 307.34109 695.24843 311.319149 697.912296 284.194149 703.50848 C 256.71875 709.166614 272.857713 719.243876 283.390293 721.866442 C 296.148936 725.067211 325.685505 729.589589 345.658245 701.649969 L 344.854388 704.830088 C 350.192819 709.084014 349.821809 735.454224 350.584441 754.287139 C 351.347074 773.120053 352.604388 790.69331 356.438165 801.039023 C 360.271941 811.405386 364.806516 838.105999 400.464761 830.444802 C 430.289894 824.063913 453.065824 814.874607 455.147606 729.362437 " transform="matrix(0.189516,0,0,0.189163,0,0)"/>
<path style=" stroke:none;fill-rule:nonzero;fill:rgb(20%,40.392157%,56.862745%);fill-opacity:1;" d="M 101.265625 127.941406 C 91.734375 129.90625 91.078125 126.683594 91.078125 126.683594 C 101.144531 111.777344 105.351562 92.855469 101.71875 88.226562 C 91.8125 75.59375 74.664062 81.566406 74.378906 81.722656 L 74.289062 81.738281 C 72.402344 81.347656 70.296875 81.117188 67.925781 81.078125 C 63.613281 81.007812 60.34375 82.207031 57.859375 84.085938 C 57.859375 84.085938 27.269531 71.507812 28.691406 99.902344 C 28.996094 105.945312 37.367188 145.613281 47.355469 133.632812 C 51.003906 129.25 54.53125 125.546875 54.53125 125.546875 C 56.28125 126.707031 58.378906 127.300781 60.578125 127.085938 L 60.75 126.941406 C 60.695312 127.484375 60.71875 128.019531 60.816406 128.648438 C 58.242188 131.515625 59 132.019531 53.855469 133.078125 C 48.652344 134.148438 51.710938 136.054688 53.707031 136.550781 C 56.125 137.15625 61.722656 138.011719 65.507812 132.726562 L 65.355469 133.328125 C 66.363281 134.132812 67.070312 138.570312 66.953125 142.589844 C 66.835938 146.613281 66.753906 149.371094 67.550781 151.527344 C 68.34375 153.683594 69.136719 158.539062 75.894531 157.089844 C 81.546875 155.882812 84.472656 152.75 84.878906 147.527344 C 85.167969 143.816406 85.824219 144.363281 85.863281 141.042969 L 86.390625 139.472656 C 86.992188 134.441406 86.484375 132.816406 89.964844 133.570312 L 90.8125 133.644531 C 93.371094 133.761719 96.726562 133.234375 98.695312 132.320312 C 102.929688 130.359375 105.445312 127.082031 101.265625 127.941406 Z M 101.265625 127.941406 "/>
<path style="fill:none;stroke-width:12.464667;stroke-linecap:round;stroke-linejoin:round;stroke:rgb(100%,100%,100%);stroke-opacity:1;stroke-miterlimit:4;" d="M 347.801862 691.614008 C 346.420878 741.133009 348.152261 790.982412 352.996011 803.104036 C 357.860372 815.22566 368.228059 838.787453 403.906915 831.146906 C 433.711436 824.745367 444.553191 812.396592 449.25266 785.097126 C 452.736037 765.025204 459.414229 709.249215 460.259309 697.829695 " transform="matrix(0.189516,0,0,0.189163,0,0)"/>
<path style="fill:none;stroke-width:12.464667;stroke-linecap:round;stroke-linejoin:round;stroke:rgb(100%,100%,100%);stroke-opacity:1;stroke-miterlimit:4;" d="M 305.053191 443.399497 C 305.053191 443.399497 143.519282 377.381046 151.042553 527.507459 C 152.629654 559.432553 196.821144 769.155229 249.504654 705.800644 C 268.776596 682.651853 286.172872 664.479742 286.172872 664.479742 " transform="matrix(0.189516,0,0,0.189163,0,0)"/>
<path style="fill:none;stroke-width:12.464667;stroke-linecap:round;stroke-linejoin:round;stroke:rgb(100%,100%,100%);stroke-opacity:1;stroke-miterlimit:4;" d="M 392.302527 431.360474 C 386.696144 433.115735 482.148936 396.461762 536.378324 465.763584 C 555.547207 490.254633 533.348404 590.283841 480.232048 669.08472 " transform="matrix(0.189516,0,0,0.189163,0,0)"/>
<path style="fill:none;stroke-width:12.464667;stroke-linecap:round;stroke-linejoin:bevel;stroke:rgb(100%,100%,100%);stroke-opacity:1;stroke-miterlimit:4;" d="M 480.232048 669.08472 C 480.232048 669.08472 483.694814 686.121074 533.987367 675.734061 C 556.041888 671.191033 542.767952 688.516489 520.424867 698.882852 C 502.05984 707.411354 460.939495 709.579617 460.259309 697.829695 C 458.548537 667.474011 481.922207 676.683967 480.232048 669.08472 C 478.706782 662.228879 468.256649 655.517588 461.331117 638.749686 C 455.291888 624.108747 378.53391 511.916614 482.623005 528.581266 C 486.43617 527.775911 455.477394 429.584563 358.066489 427.973854 C 260.676197 426.383794 263.871011 547.723932 263.871011 547.723932 " transform="matrix(0.189516,0,0,0.189163,0,0)"/>
<path style="fill:none;stroke-width:12.464667;stroke-linecap:round;stroke-linejoin:round;stroke:rgb(100%,100%,100%);stroke-opacity:1;stroke-miterlimit:4;" d="M 320.553191 679.471734 C 306.97008 694.628926 310.96875 697.292792 283.823138 702.888976 C 256.368351 708.547111 272.507314 718.603722 283.039894 721.246938 C 295.798537 724.447707 325.335106 728.970085 345.287234 701.009815 C 351.367686 692.501963 345.266622 678.93483 336.918883 675.465609 C 332.878989 673.792949 327.478723 671.707286 320.553191 679.471734 Z M 320.553191 679.471734 " transform="matrix(0.189516,0,0,0.189163,0,0)"/>
<path style="fill:none;stroke-width:12.464667;stroke-linecap:round;stroke-linejoin:round;stroke:rgb(100%,100%,100%);stroke-opacity:1;stroke-miterlimit:4;" d="M 319.666888 679.203282 C 318.285904 670.282428 322.59375 659.668263 327.19016 647.257538 C 334.115691 628.631124 350.089761 610.004711 337.310505 550.924702 C 327.787899 506.898634 263.912234 541.756046 263.871011 547.723932 C 263.829787 553.691818 266.756649 577.997016 262.819814 606.287688 C 257.646277 643.189463 286.296543 674.412453 319.295878 671.211683 " transform="matrix(0.189516,0,0,0.189163,0,0)"/>
<path style="fill-rule:nonzero;fill:rgb(100%,100%,100%);fill-opacity:1;stroke-width:4.154856;stroke-linecap:butt;stroke-linejoin:miter;stroke:rgb(100%,100%,100%);stroke-opacity:1;stroke-miterlimit:4;" d="M 304.455452 546.835977 C 304.166888 548.880339 308.18617 554.311322 313.442154 555.054727 C 318.677527 555.777481 323.150266 551.523555 323.43883 549.479193 C 323.727394 547.455481 319.708112 545.204617 314.452128 544.481862 C 309.216755 543.738458 304.744016 544.812264 304.455452 546.835977 Z M 304.455452 546.835977 " transform="matrix(0.189516,0,0,0.189163,0,0)"/>
<path style="fill-rule:nonzero;fill:rgb(100%,100%,100%);fill-opacity:1;stroke-width:2.077428;stroke-linecap:butt;stroke-linejoin:miter;stroke:rgb(100%,100%,100%);stroke-opacity:1;stroke-miterlimit:4;" d="M 463.886968 542.685302 C 464.175532 544.729664 460.15625 550.160647 454.920878 550.883401 C 449.664894 551.626806 445.192154 547.37288 444.90359 545.328518 C 444.635638 543.284155 448.65492 541.053942 453.890293 540.310537 C 459.125665 539.587783 463.598404 540.640939 463.886968 542.685302 Z M 463.886968 542.685302 " transform="matrix(0.189516,0,0,0.189163,0,0)"/>
<path style="fill:none;stroke-width:12.464667;stroke-linecap:round;stroke-linejoin:round;stroke:rgb(100%,100%,100%);stroke-opacity:1;stroke-miterlimit:4;" d="M 482.623005 528.581266 C 483.488697 544.564463 479.180851 555.467729 478.624335 572.483433 C 477.820479 597.222283 490.43484 625.554256 471.451463 653.906878 " transform="matrix(0.189516,0,0,0.189163,0,0)"/>
</g>
</svg>
