<svg width="424.2599609375px" height="131.62625732421873px" xmlns="http://www.w3.org/2000/svg" viewBox="37.870019531249994 9.186871337890636 424.2599609375 131.62625732421873" style="background: rgba(89, 104, 134, 0);" preserveAspectRatio="xMidYMid"><defs><filter id="editing-hover" x="-100%" y="-100%" width="300%" height="300%"><feFlood flood-color="#052b4a" result="flood"></feFlood><feComposite operator="in" in2="SourceAlpha" in="flood" result="shadow"></feComposite><feOffset dx="-1.9" dy="-1.9" in="SourceGraphic" result="offset-1"></feOffset><feOffset dx="1.9" dy="1.9" in="shadow" result="offset-2"></feOffset><feMerge><feMergeNode in="offset-2"></feMergeNode><feMergeNode in="offset-1"></feMergeNode></feMerge></filter></defs><g filter="url(#editing-hover)"><g transform="translate(100.93500232696533, 99.28656387329102)"><path d="M13.50-46.06L13.50 0L5.88 0L5.88-46.06L13.50-46.06ZM47.88-10.63L47.88-10.63L47.88-10.63Q47.88-7.81 49.03-6.44L49.03-6.44L49.03-6.44Q50.19-5.06 52.38-4.81L52.38-4.81L52.38 0.25L52.38 0.25Q52.13 0.31 51.56 0.31L51.56 0.31L51.56 0.31Q49.44 0.31 47.47-0.25L47.47-0.25L47.47-0.25Q45.50-0.81 44-2.06L44-2.06L44-2.06Q42.50-3.31 41.66-5.38L41.66-5.38L41.66-5.38Q40.81-7.44 40.81-10.44L40.81-10.44L40.81-10.44Q40.81-13.31 42.03-15.41L42.03-15.41L42.03-15.41Q43.25-17.50 45.16-18.84L45.16-18.84L45.16-18.84Q47.06-20.19 49.50-20.84L49.50-20.84L49.50-20.84Q51.94-21.50 54.44-21.50L54.44-21.50L57.19-21.50L57.19-17.06L55.81-17.06L55.81-17.06Q54.56-17.06 53.19-16.81L53.19-16.81L53.19-16.81Q51.81-16.56 50.63-15.88L50.63-15.88L50.63-15.88Q49.44-15.19 48.66-13.91L48.66-13.91L48.66-13.91Q47.88-12.63 47.88-10.63ZM67.31-10.94L67.31-10.44L67.31-10.44Q67.31-9.94 67.38-8.97L67.38-8.97L67.38-8.97Q67.44-8 67.63-7L67.63-7L67.63-7Q67.81-6 68.22-5.19L68.22-5.19L68.22-5.19Q68.63-4.38 69.31-4.13L69.31-4.13L67.31 0.06L67.31 0.06Q66.50 0.06 65.59-0.31L65.59-0.31L65.59-0.31Q64.69-0.69 63.84-1.38L63.84-1.38L63.84-1.38Q63-2.06 62.41-2.91L62.41-2.91L62.41-2.91Q61.81-3.75 61.50-4.75L61.50-4.75L61.50-4.75Q60.88-3.19 59.03-1.97L59.03-1.97L59.03-1.97Q57.19-0.75 54.94-0.19L54.94-0.19L54.94-4.94L54.94-4.94Q56.44-5.25 57.66-6.16L57.66-6.16L57.66-6.16Q58.88-7.06 59.75-8.31L59.75-8.31L59.75-21.50L59.75-21.50Q59.75-24.56 59.44-26.38L59.44-26.38L59.44-26.38Q59.13-28.19 58.38-29.03L58.38-29.03L58.38-29.03Q57.63-29.88 56.53-30.09L56.53-30.09L56.53-30.09Q55.44-30.31 53.94-30.31L53.94-30.31L53.94-30.31Q52.56-30.31 51.34-29.97L51.34-29.97L51.34-29.97Q50.13-29.63 49.09-29.16L49.09-29.16L49.09-29.16Q48.06-28.69 47.28-28.13L47.28-28.13L47.28-28.13Q46.50-27.56 46.13-27.25L46.13-27.25L43.31-31.56L43.31-31.56Q43.94-32.25 45.19-32.97L45.19-32.97L45.19-32.97Q46.44-33.69 48.06-34.25L48.06-34.25L48.06-34.25Q49.69-34.81 51.59-35.16L51.59-35.16L51.59-35.16Q53.50-35.50 55.56-35.50L55.56-35.50L55.56-35.50Q57.44-35.50 59.22-35.13L59.22-35.13L59.22-35.13Q61-34.75 62.47-33.88L62.47-33.88L62.47-33.88Q63.94-33 65.03-31.53L65.03-31.53L65.03-31.53Q66.13-30.06 66.56-27.88L66.56-27.88L66.56-27.88Q67-25.69 67.16-23.47L67.16-23.47L67.16-23.47Q67.31-21.25 67.31-19.06L67.31-19.06L67.31-10.94ZM79.25-35.25L86.06-35.25L86.88-31.63L86.88 0L79.25 0L79.25-35.25ZM115.56-35.63L115.56-35.63L115.56-35.63Q117.69-35.63 119.56-34.78L119.56-34.78L119.56-34.78Q121.44-33.94 122.84-32.38L122.84-32.38L122.84-32.38Q124.25-30.81 125.03-28.66L125.03-28.66L125.03-28.66Q125.81-26.50 125.81-24L125.81-24L125.81 0L118.31 0L118.31-19.19L118.31-19.19Q118.31-21.31 118.28-23.22L118.28-23.22L118.28-23.22Q118.25-25.13 117.88-26.63L117.88-26.63L117.88-26.63Q117.50-28.13 116.66-28.97L116.66-28.97L116.66-28.97Q115.81-29.81 114.06-29.81L114.06-29.81L114.06-29.81Q113.63-29.81 112.19-29.63L112.19-29.63L112.19-29.63Q110.75-29.44 108.88-28.56L108.88-28.56L108.88-33.50L108.88-33.50Q110.56-34.50 112.31-35.06L112.31-35.06L112.31-35.06Q114.06-35.63 115.56-35.63ZM104.75-30.81L104.75-30.81L104.75-30.81Q105.50-29.69 105.84-28.41L105.84-28.41L105.84-28.41Q106.19-27.13 106.28-25.75L106.28-25.75L106.28-25.75Q106.38-24.38 106.34-22.91L106.34-22.91L106.34-22.91Q106.31-21.44 106.31-19.81L106.31-19.81L106.31 0L98.75 0L98.75-19.19L98.75-19.19Q98.75-21.31 98.75-23.22L98.75-23.22L98.75-23.22Q98.75-25.13 98.38-26.63L98.38-26.63L98.38-26.63Q98-28.13 97.13-28.97L97.13-28.97L97.13-28.97Q96.25-29.81 94.56-29.81L94.56-29.81L94.56-29.81Q93.81-29.81 92.34-29.53L92.34-29.53L92.34-29.53Q90.88-29.25 89.44-28.56L89.44-28.56L89.44-33.50L89.44-33.50Q90.94-34.38 92.66-34.94L92.66-34.94L92.66-34.94Q94.38-35.50 96.06-35.50L96.06-35.50L96.06-35.50Q98.94-35.50 100.91-34.31L100.91-34.31L100.91-34.31Q102.88-33.13 104.75-30.81ZM153.69 0L153.69-48.56L161.25-48.56L161.25 0L153.69 0ZM179.94-31.38L179.94-31.38L179.94-31.38Q181-30.31 181.59-28.91L181.59-28.91L181.59-28.91Q182.19-27.50 182.47-25.97L182.47-25.97L182.47-25.97Q182.75-24.44 182.81-22.88L182.81-22.88L182.81-22.88Q182.88-21.31 182.88-19.81L182.88-19.81L182.88-1.25L182.88 0L175.25 0L175.25-19.19L175.25-19.19Q175.25-21.31 175.06-23.25L175.06-23.25L175.06-23.25Q174.88-25.19 174.19-26.69L174.19-26.69L174.19-26.69Q173.50-28.19 172.31-29.03L172.31-29.03L172.31-29.03Q171.13-29.88 169-29.88L169-29.88L169-29.88Q168.13-29.88 166.66-29.59L166.66-29.59L166.66-29.59Q165.19-29.31 163.81-28.69L163.81-28.69L163.81-33.50L163.81-33.50Q165.50-34.38 167.47-35L167.47-35L167.47-35Q169.44-35.63 171.31-35.63L171.31-35.63L171.31-35.63Q174.13-35.63 176.06-34.47L176.06-34.47L176.06-34.47Q178-33.31 179.94-31.38ZM208.13-29.69L208.13-35.56L208.13-35.56Q211.50-35.25 214.22-33.75L214.22-33.75L214.22-33.75Q216.94-32.25 218.88-29.88L218.88-29.88L218.88-29.88Q220.81-27.50 221.84-24.44L221.84-24.44L221.84-24.44Q222.88-21.38 222.88-18.06L222.88-18.06L222.88-18.06Q222.88-16.56 222.69-15.06L222.69-15.06L201.25-15.06L201.25-20.56L215.69-20.56L215.69-20.56Q215.69-22.19 215.16-23.69L215.16-23.69L215.16-23.69Q214.63-25.19 213.59-26.47L213.59-26.47L213.59-26.47Q212.56-27.75 211.19-28.63L211.19-28.63L211.19-28.63Q209.81-29.50 208.13-29.69L208.13-29.69ZM207.88-5.88L207.88-5.88L207.88-5.88Q208.56-5.88 209.59-6.03L209.59-6.03L209.59-6.03Q210.63-6.19 211.78-6.59L211.78-6.59L211.78-6.59Q212.94-7 214.09-7.63L214.09-7.63L214.09-7.63Q215.25-8.25 216.13-9.13L216.13-9.13L218.88-4.94L218.88-4.94Q216.81-2.38 214.06-1.06L214.06-1.06L214.06-1.06Q211.31 0.25 207.06 0.25L207.06 0.25L207.06 0.25Q203.63 0.25 200.63-1.16L200.63-1.16L200.63-1.16Q197.63-2.56 195.50-5L195.50-5L195.50-5Q193.38-7.44 192.13-10.69L192.13-10.69L192.13-10.69Q190.88-13.94 190.88-17.69L190.88-17.69L190.88-17.69Q190.88-21.25 192.03-24.44L192.03-24.44L192.03-24.44Q193.19-27.63 195.19-30.03L195.19-30.03L195.19-30.03Q197.19-32.44 199.84-33.94L199.84-33.94L199.84-33.94Q202.50-35.44 205.56-35.63L205.56-35.63L205.56-29.63L205.56-29.63Q203.25-29.19 201.75-27.75L201.75-27.75L201.75-27.75Q200.25-26.31 199.41-24.47L199.41-24.47L199.41-24.47Q198.56-22.63 198.22-20.69L198.22-20.69L198.22-20.69Q197.88-18.75 197.88-17.38L197.88-17.38L197.88-17.38Q197.88-14.94 198.47-12.84L198.47-12.84L198.47-12.84Q199.06-10.75 200.31-9.22L200.31-9.22L200.31-9.22Q201.56-7.69 203.41-6.78L203.41-6.78L203.41-6.78Q205.25-5.88 207.88-5.88ZM233.25-35.25L240-35.25L240.81-31.63L240.81-12.50L240.81-12.38L240.81 0L233.25 0L233.25-35.25ZM243.38-27.31L243.38-33.69L243.38-33.69Q244.94-34.56 247.13-35.03L247.13-35.03L247.13-35.03Q249.31-35.50 253.06-35.50L253.06-35.50L253.06-27.63L253.06-27.63Q251.31-28.13 248.81-28.19L248.81-28.19L248.81-28.19Q247.44-28.19 246.03-27.97L246.03-27.97L246.03-27.97Q244.63-27.75 243.38-27.31L243.38-27.31ZM277.50-29.69L277.50-35.56L277.50-35.56Q280.88-35.25 283.59-33.75L283.59-33.75L283.59-33.75Q286.31-32.25 288.25-29.88L288.25-29.88L288.25-29.88Q290.19-27.50 291.22-24.44L291.22-24.44L291.22-24.44Q292.25-21.38 292.25-18.06L292.25-18.06L292.25-18.06Q292.25-16.56 292.06-15.06L292.06-15.06L270.63-15.06L270.63-20.56L285.06-20.56L285.06-20.56Q285.06-22.19 284.53-23.69L284.53-23.69L284.53-23.69Q284-25.19 282.97-26.47L282.97-26.47L282.97-26.47Q281.94-27.75 280.56-28.63L280.56-28.63L280.56-28.63Q279.19-29.50 277.50-29.69L277.50-29.69ZM277.25-5.88L277.25-5.88L277.25-5.88Q277.94-5.88 278.97-6.03L278.97-6.03L278.97-6.03Q280-6.19 281.16-6.59L281.16-6.59L281.16-6.59Q282.31-7 283.47-7.63L283.47-7.63L283.47-7.63Q284.63-8.25 285.50-9.13L285.50-9.13L288.25-4.94L288.25-4.94Q286.19-2.38 283.44-1.06L283.44-1.06L283.44-1.06Q280.69 0.25 276.44 0.25L276.44 0.25L276.44 0.25Q273 0.25 270-1.16L270-1.16L270-1.16Q267-2.56 264.88-5L264.88-5L264.88-5Q262.75-7.44 261.50-10.69L261.50-10.69L261.50-10.69Q260.25-13.94 260.25-17.69L260.25-17.69L260.25-17.69Q260.25-21.25 261.41-24.44L261.41-24.44L261.41-24.44Q262.56-27.63 264.56-30.03L264.56-30.03L264.56-30.03Q266.56-32.44 269.22-33.94L269.22-33.94L269.22-33.94Q271.88-35.44 274.94-35.63L274.94-35.63L274.94-29.63L274.94-29.63Q272.63-29.19 271.13-27.75L271.13-27.75L271.13-27.75Q269.63-26.31 268.78-24.47L268.78-24.47L268.78-24.47Q267.94-22.63 267.59-20.69L267.59-20.69L267.59-20.69Q267.25-18.75 267.25-17.38L267.25-17.38L267.25-17.38Q267.25-14.94 267.84-12.84L267.84-12.84L267.84-12.84Q268.44-10.75 269.69-9.22L269.69-9.22L269.69-9.22Q270.94-7.69 272.78-6.78L272.78-6.78L272.78-6.78Q274.63-5.88 277.25-5.88Z" fill="#ffd5af"></path></g></g><style>text {
  font-size: 64px;
  font-family: Arial Black;
  dominant-baseline: central;
  text-anchor: middle;
}</style></svg>